<svg xmlns="http://www.w3.org/2000/svg" xmlns:xlink="http://www.w3.org/1999/xlink" width="380" height="301.33" viewBox="0 0 380 301.33"><defs><style>.a{fill:url(#a);}.b{fill:#3a3a3a;}</style><linearGradient id="a" x1="0.53" y1="400.79" x2="2.02" y2="400.79" gradientTransform="matrix(255.71, 0, 0, -148.28, -126.57, 59591.75)" gradientUnits="userSpaceOnUse"><stop offset="0" stop-color="#ffc04a"/><stop offset="1" stop-color="tomato"/></linearGradient></defs><path class="a" d="M376.78,118.24a13.25,13.25,0,1,0-12.39-8.66l-38.58,32.86-48.88-28.75a15.15,15.15,0,0,0,.44-3.52,14.72,14.72,0,0,0-23.53-11.81L209.67,63.29a11.09,11.09,0,0,0,.33-2.6,10.88,10.88,0,1,0-19,7.22l-22.17,47.45a17.9,17.9,0,0,0-3-.28,17.44,17.44,0,0,0-8.93,2.46L98.19,91.26a16.06,16.06,0,0,0,.23-2.62A16.4,16.4,0,1,0,94.76,99l55.79,25a17.46,17.46,0,0,0-2.3,8.68,17.09,17.09,0,0,0,2.63,8.7l-31.28,31.3a26.06,26.06,0,0,0-38.33,9.09l-.36-.13a.68.68,0,0,0,0,.14L37.27,161.9a13.33,13.33,0,0,0,.1-1.56,13.74,13.74,0,1,0-3.59,9.21L78.33,189.8l-.06.14.21.08a25,25,0,0,0,7.63,22.91l-.06,0,0,.05-22.7,33.45a10.68,10.68,0,0,0-1.81-.17,10.19,10.19,0,1,0,8.73,5l20.38-30,2.7-3.33a26.23,26.23,0,0,0,29.55-5.23l26.58,19a17.11,17.11,0,0,0-1.27,6.23,17.53,17.53,0,0,0,34.53,4.32l60.49-18.71a21.94,21.94,0,0,0,32.3,7.36L302.63,256a12.05,12.05,0,0,0-.22,2.27,12,12,0,1,0,4.77-9.53l-25.88-24a21.9,21.9,0,0,0,3.39-11.59c0-10.7-6.31-19.61-17.71-21.57V124.28c3.8-.65,4.11-1.81,5.75-3.33l50.66,29.82,42.48,59.49a7.59,7.59,0,0,0-.55,2.83,7.74,7.74,0,1,0,7.73-7.74l-.34,0-40.78-57.08,37.74-32.14A13.09,13.09,0,0,0,376.78,118.24ZM240.64,213.09a23,23,0,0,0,.13,2.36l-58,18a17.54,17.54,0,0,0-16.94-13.06,17.31,17.31,0,0,0-11.07,4.23L128,205.49a25.74,25.74,0,0,0-2.18-26.66l31.29-31.3a17.14,17.14,0,0,0,8.71,2.64A17.51,17.51,0,0,0,180.6,142L246,198.68A21.93,21.93,0,0,0,240.64,213.09Zm18.73-21.57a12,12,0,0,0-6.06,1.91l-69.77-60.22c0-.2-.09-.39-.09-.59a17.55,17.55,0,0,0-6.86-13.85l22-47.23c.17,0,.33,0,.51,0a10.74,10.74,0,0,0,5.5-1.52l44.16,35.07a14.76,14.76,0,0,0-.43,5c0,6.68,3.4,12.3,11,14.12Z" transform="translate(-10 -49.82)"/><path class="b" d="M84,307.74q7.92,0,12.58,4.66t4.66,14h0v24.13H89V328.27c0-3.35-.69-5.84-2.07-7.49A7.33,7.33,0,0,0,81,318.32h0a8.72,8.72,0,0,0-6.82,2.78c-1.67,1.85-2.5,4.61-2.5,8.26h0v21.16H59.46V328.27q0-10-8-9.95h0a8.61,8.61,0,0,0-6.74,2.78c-1.67,1.85-2.51,4.61-2.51,8.26h0v21.16H30V308.36H41.68v4.86a15.41,15.41,0,0,1,5.75-4.07,19.44,19.44,0,0,1,7.49-1.41h0A18,18,0,0,1,63,309.5a14.37,14.37,0,0,1,5.8,5.13h0a17.25,17.25,0,0,1,6.54-5.09,20.69,20.69,0,0,1,8.66-1.8Zm28.21,42.78V308.36h12.22v42.16Zm6.11-48a7.76,7.76,0,0,1-5.48-2,6.37,6.37,0,0,1-2.12-4.86h0a6.37,6.37,0,0,1,2.12-4.86,7.76,7.76,0,0,1,5.48-2h0a8,8,0,0,1,5.49,1.88,6,6,0,0,1,2.11,4.7h0a6.66,6.66,0,0,1-2.11,5.06,7.68,7.68,0,0,1-5.49,2Zm29.15,11.44a13.57,13.57,0,0,1,5.92-4.63,22,22,0,0,1,8.58-1.56h0V319c-1.36-.1-2.28-.16-2.75-.16h0q-5.25,0-8.22,2.94t-3,8.82h0v19.9H135.78V308.36h11.68Zm33.46,0a13.57,13.57,0,0,1,5.92-4.63,22,22,0,0,1,8.58-1.56h0V319c-1.36-.1-2.28-.16-2.75-.16h0q-5.25,0-8.22,2.94t-3,8.82h0v19.9H169.24V308.36h11.68Zm25.94,37.22a7.31,7.31,0,0,1-5.41-2.2,7.44,7.44,0,0,1-2.19-5.48h0a7.17,7.17,0,0,1,2.19-5.45,7.57,7.57,0,0,1,5.41-2.07h0a7.56,7.56,0,0,1,5.4,2.07,7.14,7.14,0,0,1,2.2,5.45h0a7.41,7.41,0,0,1-2.2,5.48,7.31,7.31,0,0,1-5.4,2.2Zm36,0a25.34,25.34,0,0,1-11.95-2.78,20.72,20.72,0,0,1-8.26-7.72,21.23,21.23,0,0,1-3-11.21h0a21.2,21.2,0,0,1,3-11.2,20.65,20.65,0,0,1,8.26-7.72,25.23,25.23,0,0,1,11.95-2.78h0a25,25,0,0,1,11.91,2.78,20.7,20.7,0,0,1,8.23,7.72,21.2,21.2,0,0,1,3,11.2h0a21.23,21.23,0,0,1-3,11.21,20.77,20.77,0,0,1-8.23,7.72,25.1,25.1,0,0,1-11.91,2.78Zm0-10a10.16,10.16,0,0,0,7.72-3.18,11.83,11.83,0,0,0,3-8.5h0a11.84,11.84,0,0,0-3-8.5,10.16,10.16,0,0,0-7.72-3.17h0a10.27,10.27,0,0,0-7.75,3.17,11.74,11.74,0,0,0-3.06,8.5h0a11.72,11.72,0,0,0,3.06,8.5,10.28,10.28,0,0,0,7.75,3.18Zm56.89-33.38c5.23,0,9.44,1.56,12.66,4.7s4.82,7.78,4.82,13.95h0v24.13H305V328.27c0-3.35-.73-5.84-2.19-7.49a8.06,8.06,0,0,0-6.35-2.46h0a9.69,9.69,0,0,0-7.36,2.86c-1.83,1.9-2.75,4.74-2.75,8.5h0v20.84H274.09V308.36h11.67v4.94a16.06,16.06,0,0,1,6-4.11,20.93,20.93,0,0,1,7.91-1.45ZM370,329.6c0,.16-.08,1.25-.24,3.29H337.87a10,10,0,0,0,4.08,6.19,13.44,13.44,0,0,0,8,2.27h0a16.07,16.07,0,0,0,5.84-1,14,14,0,0,0,4.74-3.09h0l6.5,7.05q-6,6.82-17.39,6.82h0A27.58,27.58,0,0,1,337,348.37a20.38,20.38,0,0,1-8.46-7.72,21.23,21.23,0,0,1-3-11.21h0a21.51,21.51,0,0,1,2.94-11.16,20.56,20.56,0,0,1,8.07-7.76,23.64,23.64,0,0,1,11.48-2.78h0a23.42,23.42,0,0,1,11.2,2.66,19.44,19.44,0,0,1,7.88,7.64A22.76,22.76,0,0,1,370,329.6ZM348.14,317a10.58,10.58,0,0,0-7,2.35,10,10,0,0,0-3.44,6.43h20.76a10.16,10.16,0,0,0-3.45-6.39,10.32,10.32,0,0,0-6.89-2.39Z" transform="translate(-10 -49.82)"/></svg>