<svg xmlns="http://www.w3.org/2000/svg" xmlns:xlink="http://www.w3.org/1999/xlink" width="380" height="220.36" viewBox="0 0 380 220.36"><defs><style>.a{fill:url(#a);}</style><linearGradient id="a" x1="0.54" y1="400.52" x2="2.02" y2="400.52" gradientTransform="matrix(255.71, 0, 0, -148.28, -126.83, 59591.49)" gradientUnits="userSpaceOnUse"><stop offset="0" stop-color="#ffc04a"/><stop offset="1" stop-color="tomato"/></linearGradient></defs><path class="a" d="M376.78,158.24a13.25,13.25,0,1,0-12.39-8.66l-38.58,32.86-48.88-28.75a15.15,15.15,0,0,0,.44-3.52,14.72,14.72,0,0,0-23.53-11.81l-44.17-35.07a11.09,11.09,0,0,0,.33-2.6,10.88,10.88,0,1,0-19,7.22l-22.17,47.45a17.9,17.9,0,0,0-3-.28,17.44,17.44,0,0,0-8.93,2.46L98.19,131.26a16.06,16.06,0,0,0,.23-2.62A16.4,16.4,0,1,0,94.76,139l55.79,25a17.46,17.46,0,0,0-2.3,8.68,17.09,17.09,0,0,0,2.63,8.7l-31.28,31.3a26.06,26.06,0,0,0-38.33,9.09l-.36-.13a.68.68,0,0,0,0,.14L37.27,201.9a13.33,13.33,0,0,0,.1-1.56,13.74,13.74,0,1,0-3.59,9.21L78.33,229.8l-.06.14.21.08a25,25,0,0,0,7.63,22.91l-.06,0,0,.05-22.7,33.45a10.68,10.68,0,0,0-1.81-.17,10.19,10.19,0,1,0,8.73,5l20.38-30,2.7-3.33a26.23,26.23,0,0,0,29.55-5.23l26.58,19a17.11,17.11,0,0,0-1.27,6.23,17.53,17.53,0,0,0,34.53,4.32l60.49-18.71a21.94,21.94,0,0,0,32.3,7.36L302.63,296a12.05,12.05,0,0,0-.22,2.27,12,12,0,1,0,4.77-9.53l-25.88-24a21.9,21.9,0,0,0,3.39-11.59c0-10.7-6.31-19.61-17.71-21.57V164.28c3.8-.65,4.11-1.81,5.75-3.33l50.66,29.82,42.48,59.49a7.59,7.59,0,0,0-.55,2.83,7.74,7.74,0,1,0,7.73-7.74l-.34,0-40.78-57.08,37.74-32.14A13.09,13.09,0,0,0,376.78,158.24ZM240.64,253.09a23,23,0,0,0,.13,2.36l-58,17.95a17.54,17.54,0,0,0-16.94-13.06,17.31,17.31,0,0,0-11.07,4.23L128,245.49a25.74,25.74,0,0,0-2.18-26.66l31.29-31.3a17.14,17.14,0,0,0,8.71,2.64A17.51,17.51,0,0,0,180.6,182L246,238.68A21.93,21.93,0,0,0,240.64,253.09Zm18.73-21.57a12,12,0,0,0-6.06,1.91l-69.77-60.22c0-.2-.09-.39-.09-.59a17.55,17.55,0,0,0-6.86-13.85l22-47.23c.17,0,.33,0,.51,0a10.74,10.74,0,0,0,5.5-1.52l44.16,35.07a14.76,14.76,0,0,0-.43,5c0,6.68,3.4,12.3,11,14.12Z" transform="translate(-10 -89.82)"/></svg>